<svg width="64" height="112" viewBox="0 0 64 112" fill="none" xmlns="http://www.w3.org/2000/svg">
<path d="M9 48.5C13.1421 48.5 16.5 51.8579 16.5 56C16.5 60.1421 13.1421 63.5 9 63.5V48.5ZM2.6967 61.3033C-0.232233 58.3744 -0.232233 53.6256 2.6967 50.6967L50.4264 2.96699C53.3553 0.0380592 58.1041 0.0380592 61.033 2.96699C63.9619 5.89592 63.9619 10.6447 61.033 13.5736L18.6066 56L61.033 98.4264C63.9619 101.355 63.9619 106.104 61.033 109.033C58.1041 111.962 53.3553 111.962 50.4264 109.033L2.6967 61.3033ZM9 63.5H8V48.5H9V63.5Z" fill="#1C2518" fill-opacity="0.25"/>
</svg>
