<svg width="138" height="51" viewBox="0 0 138 51" fill="none" xmlns="http://www.w3.org/2000/svg">
<path d="M7.19498 33.5035L30.9613 3.75135C32.3764 1.97992 35.1434 2.23968 36.204 4.24352C36.772 5.31656 36.6723 6.62056 35.948 7.59488L21.8085 26.6135C19.8465 29.2525 21.7302 33 25.0186 33H134C135.933 33 137.5 34.567 137.5 36.5C137.5 38.433 135.933 40 134 40H10.3203C6.96759 40 5.10248 36.123 7.19498 33.5035Z" fill="#202B1D"/>
<path d="M7.61891 39.2484L17.9319 49.7489C18.6184 50.4479 19.7343 50.4806 20.4607 49.823C21.2202 49.1353 21.2656 47.9575 20.5612 47.2135L19.2085 45.7847C16.9452 43.394 18.6399 39.4557 21.9321 39.4557H65.9701C67.2278 39.4557 68.2473 38.4362 68.2473 37.1785C68.2473 35.9601 67.2881 34.9575 66.0709 34.9036L10.6497 32.4494C7.02122 32.2888 5.07394 36.6571 7.61891 39.2484Z" fill="#202B1D"/>
</svg>
