<svg width="137" height="67" viewBox="0 0 137 67" fill="none" xmlns="http://www.w3.org/2000/svg">
<path d="M130.305 49.5035L106.539 19.7513C105.124 17.9799 102.357 18.2397 101.296 20.2435C100.728 21.3166 100.828 22.6206 101.552 23.5949L115.691 42.6135C117.653 45.2525 115.77 49 112.481 49H3.5C1.567 49 0 50.567 0 52.5C0 54.433 1.567 56 3.49998 56H127.18C130.532 56 132.398 52.123 130.305 49.5035Z" fill="#202B1D"/>
<path d="M129.881 55.2484L119.568 65.7489C118.882 66.4479 117.766 66.4806 117.039 65.823C116.28 65.1353 116.234 63.9575 116.939 63.2135L118.292 61.7847C120.555 59.394 118.86 55.4557 115.568 55.4557H71.5299C70.2722 55.4557 69.2527 54.4362 69.2527 53.1785C69.2527 51.9601 70.2119 50.9575 71.4291 50.9036L126.85 48.4494C130.479 48.2888 132.426 52.6571 129.881 55.2484Z" fill="#202B1D"/>
</svg>
