<svg width="64" height="112" viewBox="0 0 64 112" fill="none" xmlns="http://www.w3.org/2000/svg">
<path d="M55 48.5C50.8579 48.5 47.5 51.8579 47.5 56C47.5 60.1421 50.8579 63.5 55 63.5V48.5ZM61.3033 61.3033C64.2322 58.3744 64.2322 53.6256 61.3033 50.6967L13.5736 2.96699C10.6447 0.0380592 5.89592 0.0380592 2.96699 2.96699C0.0380592 5.89592 0.0380592 10.6447 2.96699 13.5736L45.3934 56L2.96699 98.4264C0.0380592 101.355 0.0380592 106.104 2.96699 109.033C5.89592 111.962 10.6447 111.962 13.5736 109.033L61.3033 61.3033ZM55 63.5H56V48.5H55V63.5Z" fill="#1C2518" fill-opacity="0.25"/>
</svg>
