<svg width="137" height="67" viewBox="0 0 137 67" fill="none" xmlns="http://www.w3.org/2000/svg">
<path d="M6.69498 49.5035L30.4613 19.7513C31.8764 17.9799 34.6434 18.2397 35.704 20.2435C36.272 21.3166 36.1723 22.6206 35.448 23.5949L21.3085 42.6135C19.3465 45.2525 21.2302 49 24.5186 49H133.5C135.433 49 137 50.567 137 52.5C137 54.433 135.433 56 133.5 56H9.82027C6.46759 56 4.60248 52.123 6.69498 49.5035Z" fill="#202B1D"/>
<path d="M7.11891 55.2484L17.4319 65.7489C18.1184 66.4479 19.2343 66.4806 19.9607 65.823C20.7202 65.1353 20.7656 63.9575 20.0612 63.2135L18.7085 61.7847C16.4452 59.394 18.1399 55.4557 21.4321 55.4557H65.4701C66.7278 55.4557 67.7473 54.4362 67.7473 53.1785C67.7473 51.9601 66.7881 50.9575 65.5709 50.9036L10.1497 48.4494C6.52122 48.2888 4.57394 52.6571 7.11891 55.2484Z" fill="#202B1D"/>
</svg>
