<svg width="137" height="51" viewBox="0 0 137 51" fill="none" xmlns="http://www.w3.org/2000/svg">
<path d="M130.224 32.9843L106.42 3.55789C104.897 1.67503 102.063 1.56686 100.401 3.32814L100.279 3.45723C98.9051 4.91347 98.8193 7.16154 100.079 8.71831L110.81 21.9843C112.926 24.5998 111.064 28.5 107.7 28.5H4.00012C1.79099 28.5 0.00012207 30.2909 0.00012207 32.5V35.5C0.00012207 37.7091 1.79099 39.5 4.00012 39.5H127.114C130.478 39.5 132.34 35.5998 130.224 32.9843Z" fill="#202B1D"/>
<path d="M129.881 39.2484L119.568 49.7489C118.882 50.4479 117.766 50.4806 117.039 49.823C116.28 49.1353 116.234 47.9575 116.939 47.2135L118.292 45.7847C120.555 43.394 118.86 39.4557 115.568 39.4557H71.5299C70.2722 39.4557 69.2527 38.4362 69.2527 37.1785C69.2527 35.9601 70.2119 34.9575 71.4291 34.9036L126.85 32.4494C130.479 32.2888 132.426 36.6571 129.881 39.2484Z" fill="#202B1D"/>
</svg>
