<svg width="2053" height="1000" viewBox="0 0 2053 1000" fill="none" xmlns="http://www.w3.org/2000/svg">
<g clip-path="url(#clip0_115_4002)">
<rect width="2053" height="1000" fill="url(#paint0_radial_115_4002)"/>
<rect x="1038" y="1" width="998" height="998" rx="31" stroke="black" stroke-opacity="0.05" stroke-width="2"/>
<rect x="1093.56" y="501" width="442.444" height="442.444" rx="23" stroke="black" stroke-opacity="0.05" stroke-width="2"/>
<mask id="path-3-inside-1_115_4002" fill="white">
<path d="M1092.56 79.5556C1092.56 66.3007 1103.3 55.5555 1116.56 55.5555H1513C1526.25 55.5555 1537 66.3007 1537 79.5555V476C1537 489.255 1526.25 500 1513 500H1116.56C1103.3 500 1092.56 489.255 1092.56 476V79.5556Z"/>
</mask>
<path d="M1090.56 79.5555C1090.56 65.1961 1102.2 53.5555 1116.56 53.5555H1511C1525.36 53.5555 1537 65.1961 1537 79.5555C1537 67.4053 1526.25 57.5555 1513 57.5555H1116.56C1104.41 57.5555 1094.56 67.4053 1094.56 79.5555H1090.56ZM1537 500H1092.56H1537ZM1116.56 500C1102.2 500 1090.56 488.359 1090.56 474V79.5555C1090.56 65.1961 1102.2 53.5555 1116.56 53.5555V57.5555C1104.41 57.5555 1094.56 67.4053 1094.56 79.5555V476C1094.56 489.255 1104.41 500 1116.56 500ZM1537 55.5555V500V55.5555Z" fill="black" fill-opacity="0.05" mask="url(#path-3-inside-1_115_4002)"/>
<rect x="1538" y="56.5555" width="442.444" height="442.444" rx="23" stroke="black" stroke-opacity="0.05" stroke-width="2"/>
<mask id="path-6-inside-2_115_4002" fill="white">
<path d="M1537 524C1537 510.745 1547.75 500 1561 500H1957.44C1970.7 500 1981.44 510.745 1981.44 524V920.444C1981.44 933.699 1970.7 944.444 1957.44 944.444H1561C1547.75 944.444 1537 933.699 1537 920.444V524Z"/>
</mask>
<path d="M1537 500H1981.44H1537ZM1983.44 920.444C1983.44 934.804 1971.8 946.444 1957.44 946.444H1563C1548.64 946.444 1537 934.804 1537 920.444C1537 932.595 1547.75 942.444 1561 942.444H1957.44C1969.59 942.444 1979.44 932.595 1979.44 920.444H1983.44ZM1537 944.444V500V944.444ZM1957.44 500C1971.8 500 1983.44 511.641 1983.44 526V920.444C1983.44 934.804 1971.8 946.444 1957.44 946.444V942.444C1969.59 942.444 1979.44 932.595 1979.44 920.444V524C1979.44 510.745 1969.59 500 1957.44 500Z" fill="black" fill-opacity="0.05" mask="url(#path-6-inside-2_115_4002)"/>
<rect x="17" y="1" width="998" height="998" rx="31" stroke="black" stroke-opacity="0.05" stroke-width="2"/>
<rect x="72.5557" y="501" width="442.444" height="442.444" rx="23" stroke="black" stroke-opacity="0.05" stroke-width="2"/>
<mask id="path-10-inside-3_115_4002" fill="white">
<path d="M71.5557 79.5556C71.5557 66.3007 82.3008 55.5555 95.5557 55.5555H492C505.255 55.5555 516 66.3007 516 79.5555V476C516 489.255 505.255 500 492 500H95.5557C82.3008 500 71.5557 489.255 71.5557 476V79.5556Z"/>
</mask>
<path d="M69.5557 79.5555C69.5557 65.1961 81.1963 53.5555 95.5557 53.5555H490C504.36 53.5555 516 65.1961 516 79.5555C516 67.4053 505.255 57.5555 492 57.5555H95.5557C83.4054 57.5555 73.5557 67.4053 73.5557 79.5555H69.5557ZM516 500H71.5557H516ZM95.5557 500C81.1963 500 69.5557 488.359 69.5557 474V79.5555C69.5557 65.1961 81.1963 53.5555 95.5557 53.5555V57.5555C83.4054 57.5555 73.5557 67.4053 73.5557 79.5555V476C73.5557 489.255 83.4054 500 95.5557 500ZM516 55.5555V500V55.5555Z" fill="black" fill-opacity="0.05" mask="url(#path-10-inside-3_115_4002)"/>
<rect x="517" y="56.5555" width="442.444" height="442.444" rx="23" stroke="black" stroke-opacity="0.05" stroke-width="2"/>
<mask id="path-13-inside-4_115_4002" fill="white">
<path d="M516 524C516 510.745 526.745 500 540 500H936.444C949.699 500 960.444 510.745 960.444 524V920.444C960.444 933.699 949.699 944.444 936.444 944.444H540C526.745 944.444 516 933.699 516 920.444V524Z"/>
</mask>
<path d="M516 500H960.444H516ZM962.444 920.444C962.444 934.804 950.804 946.444 936.444 946.444H542C527.641 946.444 516 934.804 516 920.444C516 932.595 526.745 942.444 540 942.444H936.444C948.595 942.444 958.444 932.595 958.444 920.444H962.444ZM516 944.444V500V944.444ZM936.444 500C950.804 500 962.444 511.641 962.444 526V920.444C962.444 934.804 950.804 946.444 936.444 946.444V942.444C948.595 942.444 958.444 932.595 958.444 920.444V524C958.444 510.745 948.595 500 936.444 500Z" fill="black" fill-opacity="0.05" mask="url(#path-13-inside-4_115_4002)"/>
<rect x="-36" y="546.576" width="2165.94" height="635.62" transform="rotate(-3.24424 -36 546.576)" fill="url(#paint1_linear_115_4002)"/>
<rect width="2336.88" height="465.638" transform="matrix(0.99506 -0.0992752 -0.0992752 -0.99506 -214.774 487.332)" fill="url(#paint2_linear_115_4002)"/>
</g>
<defs>
<radialGradient id="paint0_radial_115_4002" cx="0" cy="0" r="1" gradientUnits="userSpaceOnUse" gradientTransform="translate(1026.5 387.5) rotate(65.3389) scale(882.837 1733.53)">
<stop offset="0.685922" stop-color="#899D82"/>
<stop offset="1" stop-color="#556251"/>
</radialGradient>
<linearGradient id="paint1_linear_115_4002" x1="1013.67" y1="559.847" x2="1013.67" y2="1182.2" gradientUnits="userSpaceOnUse">
<stop stop-color="#899D82" stop-opacity="0.3"/>
<stop offset="1" stop-color="#61705C" stop-opacity="0.9"/>
</linearGradient>
<linearGradient id="paint2_linear_115_4002" x1="1132.52" y1="9.72209" x2="1132.52" y2="465.638" gradientUnits="userSpaceOnUse">
<stop stop-color="#899D82" stop-opacity="0.3"/>
<stop offset="1" stop-color="#61705C"/>
</linearGradient>
<clipPath id="clip0_115_4002">
<rect width="2053" height="1000" fill="white"/>
</clipPath>
</defs>
</svg>
