<svg width="130" height="115" viewBox="0 0 130 115" fill="none" xmlns="http://www.w3.org/2000/svg">
<path d="M20 24C20 21.7909 21.7909 20 24 20H106C108.209 20 110 21.7909 110 24V115H20V24Z" fill="#202B1D"/>
<path fill-rule="evenodd" clip-rule="evenodd" d="M65.6895 28H61.1158L59.4526 29.6632V36.3158L62.779 38.8105H65.6895H68.6L71.9263 36.3158V29.6632L70.2632 28H65.6895Z" fill="#D9D9D9"/>
<path fill-rule="evenodd" clip-rule="evenodd" d="M65.6895 39.6421H62.779L61.5316 41.3052V50.8684H56.5421V57.1052L58.6211 58.7684H61.5316V65.0052L64.0263 67.0842H65.6895H67.3526L69.8474 65.0052V58.7684H72.7579L74.8369 57.1052V50.8684H69.8474L69.8426 41.3028L68.6 39.6421H65.6895Z" fill="#D9D9D9"/>
<path d="M72.4286 36.6047L69 39.1163L70.2857 40.9827V50H75.8571V45.08L81 40.7907V36.186L77.1429 32H72.4286V36.6047Z" fill="#D9D9D9"/>
<path d="M58.5714 36.6047L62 39.1163L60.7143 40.9827V50H55.1429V45.08L50 40.7907V36.186L53.8571 32H58.5714V36.6047Z" fill="#D9D9D9"/>
<path d="M37 36H49V44.3296L45 48.4943V62.6546L46.6 63.904V71L40.2 70.9842L38.2 68.4853V52.6591L39.4 50.9932V44.3296H37V36Z" fill="#D9D9D9"/>
<path d="M94 36H82V44.3296L86 48.4943V62.6546L84.4 63.904V71L90.8 70.9842L92.8 68.4853V52.6591L91.6 50.9932V44.3296H94V36Z" fill="#D9D9D9"/>
<path d="M74.6667 60H70.9167V72.7807L73 74.4299V76.9035L71.3334 78.1404V92.9825L73.4167 95.4562V97.9298L71.3334 100.403V102.053L68 104.526V107H83V103.702L80.0833 101.228V99.579L78.8333 97.9298V95.4562L81.75 92.9825V82.2632L78.8333 79.7895V75.6667L80.5 74.0176V62.886H74.6666L74.6667 60Z" fill="#D9D9D9"/>
<path d="M57.3334 60H61.0834V72.7807L59 74.4298V76.9035L60.6666 78.1403V92.9825L58.5833 95.4561V97.9298L60.6666 100.403V102.053L64 104.526V107H49V103.702L51.9167 101.228V99.579L53.1667 97.9298V95.4561L50.25 92.9825V82.2631L53.1667 79.7895V75.6666L51.5 74.0175V62.8859H57.3334L57.3334 60Z" fill="#D9D9D9"/>
<mask id="path-10-inside-1_116_5701" fill="white">
<path d="M0 12C0 5.37258 5.37258 0 12 0H118C124.627 0 130 5.37258 130 12V103C130 109.627 124.627 115 118 115H12C5.37258 115 0 109.627 0 103V12Z"/>
</mask>
<path d="M-2 12C-2 4.26801 4.26801 -2 12 -2H118C125.732 -2 132 4.26801 132 12H128C128 6.47715 123.523 2 118 2H12C6.47715 2 2 6.47715 2 12H-2ZM132 105C132 112.732 125.732 119 118 119H12C4.26801 119 -2 112.732 -2 105L2 103C2 107.418 6.47715 111 12 111H118C123.523 111 128 107.418 128 103L132 105ZM12 119C4.26801 119 -2 112.732 -2 105V12C-2 4.26801 4.26801 -2 12 -2V2C6.47715 2 2 6.47715 2 12V103C2 107.418 6.47715 111 12 111V119ZM118 -2C125.732 -2 132 4.26801 132 12V105C132 112.732 125.732 119 118 119V111C123.523 111 128 107.418 128 103V12C128 6.47715 123.523 2 118 2V-2Z" fill="#202B1D" mask="url(#path-10-inside-1_116_5701)"/>
</svg>
