<svg width="57" height="79" viewBox="0 0 57 79" fill="none" xmlns="http://www.w3.org/2000/svg">
<path fill-rule="evenodd" clip-rule="evenodd" d="M28.6895 0H24.1158L22.4526 1.66316V8.31579L25.779 10.8105H28.6895H31.6L34.9263 8.31579V1.66316L33.2632 0H28.6895Z" fill="#D9D9D9"/>
<path fill-rule="evenodd" clip-rule="evenodd" d="M28.6895 11.6421H25.779L24.5316 13.3052V22.8684H19.5421V29.1052L21.6211 30.7684H24.5316V37.0052L27.0263 39.0842H28.6895H30.3526L32.8474 37.0052V30.7684H35.7579L37.8369 29.1052V22.8684H32.8474L32.8426 13.3028L31.6 11.6421H28.6895Z" fill="#D9D9D9"/>
<path d="M35.4286 8.60465L32 11.1163L33.2857 12.9827V22H38.8571V17.08L44 12.7907V8.18605L40.1429 4H35.4286V8.60465Z" fill="#D9D9D9"/>
<path d="M21.5714 8.60465L25 11.1163L23.7143 12.9827V22H18.1429V17.08L13 12.7907V8.18605L16.8571 4H21.5714V8.60465Z" fill="#D9D9D9"/>
<path d="M0 8H12V16.3296L8 20.4943V34.6546L9.6 35.904V43L3.2 42.9842L1.2 40.4853V24.6591L2.4 22.9932V16.3296H0V8Z" fill="#D9D9D9"/>
<path d="M57 8H45V16.3296L49 20.4943V34.6546L47.4 35.904V43L53.8 42.9842L55.8 40.4853V24.6591L54.6 22.9932V16.3296H57V8Z" fill="#D9D9D9"/>
<path d="M37.6667 32H33.9167V44.7807L36 46.4299V48.9035L34.3334 50.1404V64.9825L36.4167 67.4562V69.9298L34.3334 72.4035V74.0526L31 76.5263V79H46V75.7018L43.0833 73.2281V71.579L41.8333 69.9298V67.4562L44.75 64.9825V54.2632L41.8333 51.7895V47.6667L43.5 46.0176V34.886H37.6666L37.6667 32Z" fill="#D9D9D9"/>
<path d="M20.3334 32H24.0834V44.7807L22 46.4298V48.9035L23.6666 50.1403V64.9825L21.5833 67.4561V69.9298L23.6666 72.4035V74.0526L27 76.5263V79H12V75.7018L14.9167 73.2281V71.579L16.1667 69.9298V67.4561L13.25 64.9825V54.2631L16.1667 51.7895V47.6666L14.5 46.0175V34.8859H20.3334L20.3334 32Z" fill="#D9D9D9"/>
</svg>
